<svg width="24" height="19" viewBox="0 0 24 19" xmlns="http://www.w3.org/2000/svg" xmlns:xlink="http://www.w3.org/1999/xlink"><title>Groups</title><defs><path d="M11.4 17.853c-.273.11-.538.23-.794.358-.955.48-1.626.984-2.02 1.378A2 2 0 0 0 8 21v2a4 4 0 0 0 4.01 4h7.98C22.2 27 24 25.21 24 23v-2a2 2 0 0 0-.586-1.414c-.394-.394-1.065-.897-2.02-1.375a10.858 10.858 0 0 0-.794-.355 6 6 0 1 0-9.2 0zM0 0h32v32H0V0z" id="a"/></defs><g fill="none" fill-rule="evenodd" opacity=".6"><g transform="translate(-4 -6)"><mask id="b" fill="#fff"><use xlink:href="#a"/></mask><use xlink:href="#a"/><path d="M22 14a4 4 0 1 0 0-8 4 4 0 0 0 0 8zm-6 3s2-2 6-2 6 2 6 2v2c0 1.105-.902 2-2.01 2h-7.98A2 2 0 0 1 16 19v-2z" fill="#FFF" mask="url(#b)"/><path d="M10 14a4 4 0 1 0 0-8 4 4 0 0 0 0 8zm-6 3s2-2 6-2 6 2 6 2v2c0 1.105-.902 2-2.01 2H6.01A2 2 0 0 1 4 19v-2z" fill="#FFF" mask="url(#b)"/></g><path d="M6 15s2-2 6-2 6 2 6 2v2c0 1.105-.902 2-2.01 2H8.01A2 2 0 0 1 6 17v-2zm6-3a4 4 0 1 0 0-8 4 4 0 0 0 0 8z" fill="#FFF"/></g></svg>