<?xml version="1.0" encoding="UTF-8" standalone="no"?>
<svg width="12px" height="12px" viewBox="0 0 12 12" version="1.1" xmlns="http://www.w3.org/2000/svg" xmlns:xlink="http://www.w3.org/1999/xlink">
    <!-- Generator: Sketch 3.6.1 (26313) - http://www.bohemiancoding.com/sketch -->
    <title>iconUserInCircle</title>
    <desc>Created with Sketch.</desc>
    <defs>
        <circle id="path-1" cx="6" cy="6" r="4"></circle>
    </defs>
    <g id="Assets" stroke="none" stroke-width="1" fill="none" fill-rule="evenodd">
        <g id="iconUserInCircle">
            <circle id="Oval-3" fill="#9A9DA1" cx="6" cy="6" r="5"></circle>
            <mask id="mask-2" fill="white">
                <use xlink:href="#path-1"></use>
            </mask>
            <use id="Mask" xlink:href="#path-1"></use>
            <path d="M3,8 C3,8 4,6.5 6,6.5 C8,6.5 9,8 9,8 L9,9 C9,9.55228475 8.54902482,10 8.00922203,10 L3.99077797,10 C3.44358641,10 3,9.55613518 3,9 L3,8 Z M6,6 C7.1045695,6 8,5.1045695 8,4 C8,2.8954305 7.1045695,2 6,2 C4.8954305,2 4,2.8954305 4,4 C4,5.1045695 4.8954305,6 6,6 Z" id="Oval-108" fill="#FFFFFF" mask="url(#mask-2)"></path>
        </g>
    </g>
</svg>