<?xml version="1.0" encoding="UTF-8" standalone="no"?>
<svg width="48px" height="48px" viewBox="0 0 48 48" version="1.1" xmlns="http://www.w3.org/2000/svg" xmlns:xlink="http://www.w3.org/1999/xlink">
    <!-- Generator: Sketch 3.6.1 (26313) - http://www.bohemiancoding.com/sketch -->
    <title>sideGroups</title>
    <desc>Created with Sketch.</desc>
    <defs>
        <path d="M11.4004248,17.8529996 C11.1274192,17.9631021 10.8624387,18.0827126 10.6055728,18.2111456 C9.65063759,18.6886132 8.97992583,19.191647 8.58578644,19.5857864 C8.21071368,19.9608592 8,20.469567 8,21 L8,23 C8,25.2172898 9.79508791,27 12.0085302,27 L19.9914698,27 C22.2012374,27 24,25.2105388 24,23 L24,21 C24,20.469567 23.7892863,19.9608592 23.4142136,19.5857864 C23.0200742,19.191647 22.3493624,18.6886132 21.3944272,18.2111456 C21.1375613,18.0827126 20.8725808,17.9631021 20.5995752,17.8529996 C21.4736716,16.8106373 22,15.466784 22,14 C22,10.6862915 19.3137085,8 16,8 C12.6862915,8 10,10.6862915 10,14 C10,15.466784 10.5263284,16.8106373 11.4004248,17.8529996 Z M0,0 L32,0 L32,32 L0,32 L0,0 Z" id="path-1"></path>
    </defs>
    <g id="Assets" stroke="none" stroke-width="1" fill="none" fill-rule="evenodd">
        <g id="Group" transform="translate(-144.000000, 0.000000)">
            <g id="sideGroups" transform="translate(144.000000, 0.000000)">
                <g id="GroupChat" transform="translate(8.000000, 8.000000)">
                    <g id="Group-4">
                        <mask id="mask-2" fill="white">
                            <use xlink:href="#path-1"></use>
                        </mask>
                        <use id="Mask" xlink:href="#path-1"></use>
                        <path d="M22,14 C24.209139,14 26,12.209139 26,10 C26,7.790861 24.209139,6 22,6 C19.790861,6 18,7.790861 18,10 C18,12.209139 19.790861,14 22,14 Z M16,17 C16,17 18,15 22,15 C26,15 28,17 28,17 L28,19 C28,20.1045695 27.0980496,21 25.9914698,21 L18.0085302,21 C16.8992496,21 16,20.1122703 16,19 L16,17 Z" id="Oval-108" fill="#FFFFFF" mask="url(#mask-2)"></path>
                        <path d="M10,14 C12.209139,14 14,12.209139 14,10 C14,7.790861 12.209139,6 10,6 C7.790861,6 6,7.790861 6,10 C6,12.209139 7.790861,14 10,14 Z M4,17 C4,17 6,15 10,15 C14,15 16,17 16,17 L16,19 C16,20.1045695 15.0980496,21 13.9914698,21 L6.0085302,21 C4.8992496,21 4,20.1122703 4,19 L4,17 Z" id="Oval-108" fill="#FFFFFF" mask="url(#mask-2)"></path>
                    </g>
                    <path d="M10,21 C10,21 12,19 16,19 C20,19 22,21 22,21 L22,23 C22,24.1045695 21.0980496,25 19.9914698,25 L12.0085302,25 C10.8992496,25 10,24.1122703 10,23 L10,21 Z M16,18 C18.209139,18 20,16.209139 20,14 C20,11.790861 18.209139,10 16,10 C13.790861,10 12,11.790861 12,14 C12,16.209139 13.790861,18 16,18 Z" id="Oval-108" fill="#FFFFFF"></path>
                </g>
            </g>
        </g>
    </g>
</svg>