<?xml version="1.0" encoding="UTF-8" standalone="no"?>
<svg width="24px" height="24px" viewBox="0 0 24 24" version="1.1" xmlns="http://www.w3.org/2000/svg" xmlns:xlink="http://www.w3.org/1999/xlink">
    <!-- Generator: Sketch 3.6.1 (26313) - http://www.bohemiancoding.com/sketch -->
    <title>topMention</title>
    <desc>Created with Sketch.</desc>
    <defs></defs>
    <g id="Assets" stroke="none" stroke-width="1" fill="none" fill-rule="evenodd">
        <g id="topMention" fill="#474848">
            <path d="M20.9548549,13.1395349 C20.8000709,15.4031121 19.6908021,16.5348837 17.6270154,16.5348837 C17.1970598,16.5348837 16.8230041,16.4806207 16.504837,16.372093 C16.1866698,16.2635653 15.9201014,16.1317837 15.7051236,15.9767442 C15.4901458,15.8217047 15.3138667,15.6666674 15.1762809,15.5116279 C15.0386951,15.3565884 14.9441063,15.2403105 14.8925116,15.1627907 C14.7893223,15.3178302 14.6560381,15.4883712 14.4926549,15.6744186 C14.3292718,15.860466 14.1185968,16.0348829 13.8606234,16.1976744 C13.6026501,16.3604659 13.2930867,16.4961235 12.931924,16.6046512 C12.5707613,16.7131788 12.1494112,16.7674419 11.667861,16.7674419 C10.3779943,16.7674419 9.35041585,16.3643451 8.58509494,15.5581395 C7.81977402,14.751934 7.4371193,13.5736512 7.4371193,12.0232558 C7.4371193,10.4728605 7.82407351,9.29070174 8.59799354,8.47674419 C9.37191357,7.66278663 10.3951925,7.25581395 11.667861,7.25581395 C12.3901863,7.25581395 12.9534197,7.37984372 13.3575779,7.62790698 C13.7617361,7.87597023 14.084198,8.13178163 14.3249731,8.39534884 L14.3249731,7.95348837 C14.3249731,7.6124014 14.5141507,7.44186047 14.8925116,7.44186047 L15.3310641,7.44186047 C15.709425,7.44186047 15.8986026,7.6124014 15.8986026,7.95348837 L15.8986026,13.0232558 C15.8986026,13.7674456 16.0619833,14.3139517 16.3887495,14.6627907 C16.7155158,15.0116297 17.1282669,15.1860465 17.6270154,15.1860465 C18.0053763,15.1860465 18.3106402,15.104652 18.5428162,14.9418605 C18.7749922,14.779069 18.9512713,14.5813965 19.0716589,14.3488372 C19.1920464,14.1162779 19.2737368,13.8759702 19.3167323,13.627907 C19.3597279,13.3798437 19.3812253,13.1705435 19.3812253,13 C19.3984236,12.8139526 19.4156215,12.453491 19.4328197,11.9186047 C19.450018,11.3837183 19.43282,10.7984528 19.3812253,10.1627907 C19.2952342,9.23255349 19.0974576,8.40698035 18.7878896,7.68604651 C18.4783216,6.96511267 18.018276,6.35659163 17.4077391,5.86046512 C16.7972022,5.3643386 16.0361923,4.98837337 15.1246865,4.73255814 C14.2131807,4.47674291 13.1125109,4.34883721 11.8226442,4.34883721 C9.70726279,4.34883721 8.04335969,4.85270814 6.83088498,5.86046512 C5.61841027,6.86822209 4.89179626,8.30231628 4.65102114,10.1627907 C4.61662469,10.3643421 4.59512723,10.6317813 4.58652812,10.9651163 C4.57792901,11.2984513 4.57362952,11.647285 4.57362952,12.0116279 C4.57362952,12.3759708 4.57792901,12.7286805 4.58652812,13.0697674 C4.59512723,13.4108544 4.61662469,13.6899214 4.65102114,13.9069767 C4.87459803,15.7364433 5.59691256,17.1511578 6.81798638,18.1511628 C8.0390602,19.1511678 9.70726279,19.6511628 11.8226442,19.6511628 C12.8029429,19.6511628 13.6198462,19.585272 14.2733787,19.4534884 C14.9269112,19.3217048 15.4686471,19.1705435 15.8986026,19 C16.3285582,18.8294565 16.6725175,18.6511637 16.9304908,18.4651163 C17.1884642,18.2790688 17.3948398,18.1317835 17.5496238,18.0232558 C17.6184167,17.976744 17.700107,17.918605 17.7946972,17.8488372 C17.8892874,17.7790694 18.0139727,17.744186 18.1687567,17.744186 L18.839484,17.744186 C18.994268,17.744186 19.1232528,17.7906972 19.2264421,17.8837209 C19.3296314,17.9767447 19.3812253,18.0930226 19.3812253,18.2325581 C19.3812253,18.3410858 19.3382304,18.4496119 19.2522393,18.5581395 C18.9082749,18.8837226 18.5170212,19.193797 18.0784665,19.4883721 C17.6399118,19.7829472 17.1239728,20.0426345 16.5306342,20.2674419 C15.9372955,20.4922492 15.2536764,20.670542 14.4797563,20.8023256 C13.7058363,20.9341092 12.8201411,21 11.8226442,21 C9.20851433,21 7.166256,20.4031067 5.69580795,19.2093023 C4.2253599,18.0154979 3.35256318,16.286833 3.07739162,14.0232558 C3.04299517,13.8062005 3.02149771,13.5155057 3.0128986,13.1511628 C3.00429949,12.7868199 3,12.4069787 3,12.0116279 C3,11.6162771 3.00429949,11.2403119 3.0128986,10.8837209 C3.02149771,10.52713 3.04299517,10.248063 3.07739162,10.0465116 C3.3697614,7.82944628 4.2511571,6.1007814 5.72160515,4.86046512 C7.19205321,3.62014884 9.22571255,3 11.8226442,3 C14.7979367,3 17.0336722,3.60464512 18.5299176,4.81395349 C20.026163,6.02326186 20.8344673,7.76743047 20.9548549,10.0465116 C20.9720531,10.3565907 20.9849516,10.674417 20.9935507,11 C21.0021498,11.325583 21.0021498,11.6317815 20.9935507,11.9186047 C20.9849516,12.2054278 20.9763526,12.4573633 20.9677535,12.6744186 C20.9591543,12.891474 20.9548549,13.0465112 20.9548549,13.1395349 L20.9548549,13.1395349 Z M9.01074882,12.0232558 C9.01074882,12.4573665 9.05804323,12.8798429 9.15263345,13.2906977 C9.24722368,13.7015524 9.39770587,14.062014 9.60408455,14.372093 C9.81046322,14.6821721 10.0813312,14.9341076 10.4166965,15.127907 C10.7520619,15.3217064 11.1691125,15.4186047 11.667861,15.4186047 C12.1838077,15.4186047 12.6094573,15.3333342 12.9448226,15.1627907 C13.280188,14.9922472 13.5510559,14.7558155 13.7574346,14.4534884 C13.9638133,14.1511613 14.109996,13.7945757 14.1959871,13.3837209 C14.2819782,12.9728662 14.3249731,12.5193823 14.3249731,12.0232558 C14.3249731,11.5271293 14.2819782,11.0697695 14.1959871,10.6511628 C14.109996,10.232556 13.9638133,9.87209453 13.7574346,9.56976744 C13.5510559,9.26744035 13.280188,9.0310086 12.9448226,8.86046512 C12.6094573,8.68992163 12.1838077,8.60465116 11.667861,8.60465116 C11.1691125,8.60465116 10.7520619,8.68992163 10.4166965,8.86046512 C10.0813312,9.0310086 9.81046322,9.26744035 9.60408455,9.56976744 C9.39770587,9.87209453 9.24722368,10.232556 9.15263345,10.6511628 C9.05804323,11.0697695 9.01074882,11.5271293 9.01074882,12.0232558 L9.01074882,12.0232558 Z" id="@"></path>
        </g>
    </g>
</svg>