<?xml version="1.0" encoding="UTF-8" standalone="no"?>
<svg width="71px" height="73px" viewBox="0 0 71 73" version="1.1" xmlns="http://www.w3.org/2000/svg" xmlns:xlink="http://www.w3.org/1999/xlink">
    <!-- Generator: Sketch 39.1 (31720) - http://www.bohemiancoding.com/sketch -->
    <title>Group 4</title>
    <desc>Created with Sketch.</desc>
    <defs></defs>
    <g id="Creating-external-chat-[Organization]" stroke="none" stroke-width="1" fill="#fdb22b" fill-rule="evenodd" opacity="0.8">
        <g id="Creating-external-chat-[Organization]-1" transform="translate(-603.000000, -275.000000)">
            <g id="Group-3" transform="translate(521.000000, 223.000000)">
                <g id="Group-Copy-3" transform="translate(58.000000, 30.000000)">
                    <g id="Group-4" transform="translate(24.000000, 22.000000)">
                        <path d="M29.0083211,51.8027602 L28.7692358,46.765767 C28.5922579,43.0372359 31.4926282,40 35.2247702,40 L35.7752908,40 C39.5083349,40 42.4075696,43.042155 42.2308252,46.765767 L41.99174,51.8027602 C41.902548,53.681836 40.9883204,55.3640364 39.6158913,56.5 L40.2804859,56.5 C44.503203,56.5 47.7381787,59.9424252 47.4693911,64.1527674 L47.0804278,70.2455652 C47.0834748,71.6760589 46.0789589,71.9864942 43.0266402,72.4725984 C40.9515752,72.8030678 38.3240872,73 35.4999674,73 C32.6758477,73 30.0483597,72.8030678 27.9732947,72.4725984 C24.920976,71.9864942 23.9164601,71.6760589 23.9195074,70.2455653 L23.530544,64.1527674 C23.2619088,59.9448138 26.5018081,56.5 30.719449,56.5 L31.3807742,56.5 C30.0097031,55.3646233 29.0975747,53.6831358 29.0083211,51.8027602 Z" id="Shape"></path>
                        <path d="M20.4446147,33.8606484 C20.796559,33.8668838 21.1524122,33.8700666 21.5114435,33.8700666 C24.3355632,33.8700666 26.9630513,33.6731344 29.0381163,33.3426651 C32.0904349,32.8565609 33.0949509,32.5461255 33.0949509,31.0200666 L33.0919039,31.1156319 L33.4808671,25.022834 C33.7496547,20.8124918 30.514679,17.3700666 26.291962,17.3700666 L25.6273673,17.3700666 C26.9997965,16.234103 27.9140241,14.5519027 28.003216,12.6728269 L28.2423013,7.63583369 C28.4190457,3.91222164 25.519811,0.870066643 21.7867669,0.870066643 L21.2362463,0.870066643 C17.5041043,0.870066643 14.603734,3.90730257 14.7807119,7.63583369 L15.0197971,12.6728269 C15.1090508,14.5532025 16.0211792,16.23469 17.3922503,17.3700666 L17.3922503,17.3700666 L16.7309251,17.3700666 C13.606507,17.3700666 11.018655,19.260515 9.99622644,21.9512158 C10.6134053,21.7809085 11.2665705,21.6899667 11.9446408,21.6899667 L12.5515469,21.6899667 C16.6669376,21.6899667 20.8631185,25.0437059 20.6682715,29.1486986 L20.4446147,33.8606484 Z" id="Combined-Shape"></path>
                        <path d="M61.0051624,21.9518594 C59.9843784,19.2599825 57.3978326,17.3700666 54.2690098,17.3700666 L53.6044152,17.3700666 C54.9768443,16.234103 55.8910719,14.5519027 55.9802639,12.6728269 L56.2193491,7.63583369 C56.3960936,3.91222164 53.4968588,0.870066643 49.7638148,0.870066643 L49.2132941,0.870066643 C45.4811521,0.870066643 42.5807818,3.90730257 42.7577598,7.63583369 L42.996845,12.6728269 C43.0860987,14.5532025 43.998227,16.23469 45.3692982,17.3700666 L45.3692982,17.3700666 L44.7079729,17.3700666 C40.490332,17.3700666 37.2504327,20.8148804 37.5190679,25.0228341 L37.9080313,31.1156319 C37.904984,32.5461255 38.9094999,32.8565609 41.9618186,33.3426651 C44.0368836,33.6731344 46.6643717,33.8700666 49.4884914,33.8700666 C49.9031097,33.8700666 50.3134899,33.8658219 50.7185059,33.8575331 L50.7185059,29.1486988 C50.5234015,25.0382832 54.3341268,21.6899667 58.4485231,21.6899667 L59.0554292,21.6899667 C59.7340273,21.6899667 60.3876323,21.7811536 61.0051624,21.9518594 Z" id="Combined-Shape"></path>
                        <path d="M5.75637991,35.1826936 L5.51729468,30.1457004 C5.34031674,26.4171693 8.24068704,23.3799334 11.972829,23.3799334 L12.5233497,23.3799334 C16.2563937,23.3799334 19.1556285,26.4220883 18.978884,30.1457004 L18.7397988,35.1826936 C18.6506068,37.0617694 17.7363792,38.7439697 16.3639501,39.8799334 L17.0285447,39.8799334 C21.2512618,39.8799334 24.4862375,43.3223585 24.2174499,47.5327008 L23.8284866,53.6254986 C23.8315337,55.0559923 22.8270177,55.3664276 19.7746991,55.8525318 C17.699634,56.1830011 15.072146,56.3799334 12.2480263,56.3799334 C9.42390656,56.3799334 6.79641851,56.1830011 4.72135349,55.8525318 C1.66903485,55.3664276 0.664518888,55.0559923 0.667566223,53.6254986 L0.278602805,47.5327008 C0.0099675915,43.3247471 3.24986692,39.8799334 7.46750783,39.8799334 L8.12883305,39.8799334 C6.75776194,38.7445567 5.84563356,37.0630692 5.75637991,35.1826936 Z" id="Path"></path>
                        <path d="M54.6327154,39.8799334 C53.2616443,38.7445567 52.3495159,37.0630692 52.2602622,35.1826936 L52.021177,30.1457004 C51.8441991,26.4171693 54.7445694,23.3799334 58.4767114,23.3799334 L59.027232,23.3799334 C62.7602761,23.3799334 65.6595108,26.4220883 65.4827664,30.1457004 L65.2436811,35.1826936 C65.1544892,37.0617694 64.2402616,38.7439697 62.8678324,39.8799334 L63.5324271,39.8799334 C67.7551441,39.8799334 70.9901198,43.3223585 70.7213322,47.5327008 L70.332369,53.6254986 L70.335416,53.5299334 C70.335416,55.0559923 69.3309,55.3664276 66.2785814,55.8525318 C64.2035164,56.1830011 61.5760283,56.3799334 58.7519086,56.3799334 C55.9277889,56.3799334 53.3003008,56.1830011 51.2252358,55.8525318 C48.1729172,55.3664276 47.1684012,55.0559923 47.1714486,53.6254986 L46.7824851,47.5327008 C46.5138499,43.3247471 49.7537493,39.8799334 53.9713902,39.8799334 L54.6327154,39.8799334 L54.6327154,39.8799334 Z" id="Path"></path>
                    </g>
                </g>
            </g>
        </g>
    </g>
</svg>