<?xml version="1.0" encoding="UTF-8" standalone="no"?>
<svg width="24px" height="24px" viewBox="0 0 24 24" version="1.1" xmlns="http://www.w3.org/2000/svg" xmlns:xlink="http://www.w3.org/1999/xlink">
    <!-- Generator: Sketch 3.6.1 (26313) - http://www.bohemiancoding.com/sketch -->
    <title>iconLock</title>
    <desc>Created with Sketch.</desc>
    <defs></defs>
    <g id="Assets" stroke="none" stroke-width="1" fill="none" fill-rule="evenodd">
        <g id="Registration" transform="translate(-96.000000, 0.000000)" fill="#c91913">
            <g id="iconLock" transform="translate(96.000000, 0.000000)">
                <path d="M17,10 L17,6.99502908 C17,4.23382212 14.7614237,2 12,2 C9.24419519,2 7,4.23635069 7,6.99502908 L7,10 L5.99406028,10 C4.89451376,10 4,10.8992496 4,12.0085302 L4,19.9914698 C4,21.0980496 4.8927712,22 5.99406028,22 L18.0059397,22 C19.1054862,22 20,21.1007504 20,19.9914698 L20,12.0085302 C20,10.9019504 19.1072288,10 18.0059397,10 L17,10 Z M9,10 L9,7.00335124 C9,5.34464615 10.3465171,4 12,4 C13.6568542,4 15,5.34237885 15,7.00335124 L15,10 L9,10 Z" id="Rectangle-6"></path>
            </g>
        </g>
    </g>
</svg>