<?xml version="1.0" encoding="UTF-8" standalone="no"?>
<svg width="24px" height="24px" viewBox="0 0 24 24" version="1.1" xmlns="http://www.w3.org/2000/svg" xmlns:xlink="http://www.w3.org/1999/xlink">
    <!-- Generator: Sketch 3.6.1 (26313) - http://www.bohemiancoding.com/sketch -->
    <title>iconUser</title>
    <desc>Created with Sketch.</desc>
    <defs></defs>
    <g id="Assets" stroke="none" stroke-width="1" fill="none" fill-rule="evenodd">
        <g id="Registration" fill="#474848">
            <g id="iconUser">
                <path d="M5,16 C5,16 7.33333333,13 12,13 C16.6666667,13 19,16 19,16 L19,18 C19,19.1045695 18.1029399,20 16.9941413,20 L7.00585866,20 C5.89805351,20 5,19.1122704 5,18 L5,16 Z M12,12 C14.209139,12 16,10.209139 16,8 C16,5.790861 14.209139,4 12,4 C9.790861,4 8,5.790861 8,8 C8,10.209139 9.790861,12 12,12 Z" id="Oval-108"></path>
            </g>
        </g>
    </g>
</svg>