<svg width="26" height="26" viewBox="0 0 26 26" xmlns="http://www.w3.org/2000/svg" xmlns:xlink="http://www.w3.org/1999/xlink"><title>Dashboard</title><defs><path id="a" d="M0 0h72v900H0z"/><circle id="b" cx="16" cy="16" r="11.7"/></defs><g fill="none" fill-rule="evenodd"><g transform="translate(-23 -151)"><use transform="matrix(-1 0 0 1 72 0)" xlink:href="#a"/><use xlink:href="#a"/><use xlink:href="#a"/><use xlink:href="#a"/><use xlink:href="#a"/><use xlink:href="#a"/></g><path d="M49-151h-72v900h72z"/><g transform="translate(-3 -3)" opacity=".6"><mask id="c" fill="#fff"><use xlink:href="#b"/></mask><use xlink:href="#b"/><g transform="rotate(-15 39.383 -41.17)" mask="url(#c)"><circle fill="#FFF" cx="2" cy="8" r="2"/><path d="M2 0v8" stroke="#FFF" stroke-width="1.5" stroke-linecap="round"/></g><circle stroke="#FFF" stroke-width="2" cx="16" cy="16" r="12"/><path d="M15.911 8H16a8 8 0 0 1 7.963 8.776l-1.972-.427a6.501 6.501 0 0 0-5.664-6.797L15.91 8zM12.05 9.042a8.024 8.024 0 0 0-3.623 4.375l1.017.22a6.523 6.523 0 0 1 2.942-3.343l-.336-1.252z" fill="#FFF"/></g></g></svg>