<?xml version="1.0" encoding="UTF-8" standalone="no"?>
<svg width="75px" height="33px" viewBox="0 0 75 33" version="1.1" xmlns="http://www.w3.org/2000/svg" xmlns:xlink="http://www.w3.org/1999/xlink">
    <!-- Generator: Sketch 39.1 (31720) - http://www.bohemiancoding.com/sketch -->
    <title>Group 4</title>
    <desc>Created with Sketch.</desc>
    <defs></defs>
    <g id="Creating-external-chat-[Organization]" stroke="none" stroke-width="1" fill="#fdb22b" fill-rule="evenodd" opacity="0.8">
        <g id="Creating-external-chat-[Organization]-1" transform="translate(-316.000000, -294.000000)">
            <g id="Group-2" transform="translate(236.000000, 223.000000)">
                <g id="PrivateIconBig" transform="translate(57.000000, 30.000000)">
                    <g id="Group-4" transform="translate(23.000000, 41.000000)">
                        <path d="M16.6126777,16.5 L17.2804859,16.5 C21.5021056,16.5 24.7372835,19.9564466 24.4682549,24.1705652 L24.0804278,30.2455652 C23.9077454,32.002533 19.999817,33 12.4999085,33 C5.00000009,33 1.09802246,32.1123047 0.919507389,30.2455653 L0.531680182,24.1705653 C0.26206105,19.9471993 3.48546845,16.5 7.71944899,16.5 L8.38196218,16.5 C7.0098685,15.3630009 6.09732229,13.6778175 6.00777702,11.7912983 L5.76923585,6.76576704 C5.5921057,3.03402931 8.49584147,0 12.2431114,0 L12.7569496,0 C16.4995653,0 19.4075956,3.04160742 19.2308252,6.76576704 L18.992284,11.7912983 C18.9028603,13.6752567 17.9871111,15.3618454 16.6126777,16.5 Z" id="Shape-Copy-4"></path>
                        <path d="M67.0967518,16.5 L67.7645599,16.5 C71.9861796,16.5 75.2213576,19.9564466 74.9523289,24.1705652 L74.5645018,30.2455652 C74.3918195,32.002533 70.483891,33 62.9839826,33 C55.4840741,33 51.5820965,32.1123047 51.4035814,30.2455653 L51.0157542,24.1705653 C50.7461351,19.9471993 53.9695425,16.5 58.203523,16.5 L58.8660362,16.5 C57.4939425,15.3630009 56.5813963,13.6778175 56.491851,11.7912983 L56.2533099,6.76576704 C56.0761797,3.03402931 58.9799155,0 62.7271854,0 L63.2410236,0 C66.9836393,0 69.8916697,3.04160742 69.7148992,6.76576704 L69.476358,11.7912983 C69.3869343,13.6752567 68.4711851,15.3618454 67.0967518,16.5 Z" id="Shape-Copy-5"></path>
                        <g id="Group-17" transform="translate(29.000000, 15.000000)">
                            <ellipse id="Oval-159-Copy" cx="9" cy="1.90909091" rx="1.90909091" ry="1.90909091"></ellipse>
                            <ellipse id="Oval-159-Copy-3" cx="1.90909091" cy="1.90909091" rx="1.90909091" ry="1.90909091"></ellipse>
                            <ellipse id="Oval-159-Copy-2" cx="16.0909091" cy="1.90909091" rx="1.90909091" ry="1.90909091"></ellipse>
                        </g>
                    </g>
                </g>
            </g>
        </g>
    </g>
</svg>