<?xml version="1.0" encoding="UTF-8" standalone="no"?>
<svg width="24px" height="24px" viewBox="0 0 24 24" version="1.1" xmlns="http://www.w3.org/2000/svg" xmlns:xlink="http://www.w3.org/1999/xlink">
    <!-- Generator: Sketch 3.6.1 (26313) - http://www.bohemiancoding.com/sketch -->
    <title>topTags</title>
    <desc>Created with Sketch.</desc>
    <defs></defs>
    <g id="Assets" stroke="none" stroke-width="1" fill="none" fill-rule="evenodd">
        <g id="topTags" fill="#474848">
            <path d="M16.2747069,9.45454545 L15.4974874,14.5454545 L18.7135678,14.5454545 C19.1066463,14.5454545 19.3031826,14.7359288 19.3031826,15.1168831 L19.3031826,15.4805195 C19.3031826,15.8614738 19.1066463,16.0519481 18.7135678,16.0519481 L15.2562814,16.0519481 L14.7470687,19.4545455 C14.7113343,19.6103904 14.6443333,19.7402592 14.5460637,19.8441558 C14.447794,19.9480525 14.3093253,20 14.1306533,20 L13.6482412,20 C13.4874364,20 13.3489676,19.9480525 13.2328308,19.8441558 C13.116694,19.7402592 13.0764934,19.6103904 13.1122278,19.4545455 C13.130095,19.3506488 13.1658289,19.1515166 13.2194305,18.8571429 C13.2551649,18.6147174 13.304299,18.2684005 13.3668342,17.8181818 C13.4293694,17.3679631 13.5231708,16.7792244 13.6482412,16.0519481 L9.17252931,16.0519481 L8.66331658,19.4545455 C8.62758218,19.6103904 8.56058117,19.7402592 8.46231156,19.8441558 C8.36404194,19.9480525 8.2255732,20 8.04690117,20 L7.56448911,20 C7.40368429,20 7.26521554,19.9480525 7.14907873,19.8441558 C7.03294191,19.7402592 6.99274131,19.6103904 7.02847571,19.4545455 C7.04634291,19.3506488 7.08207678,19.1515166 7.13567839,18.8571429 C7.1714128,18.6147174 7.22054687,18.2684005 7.28308208,17.8181818 C7.34561729,17.3679631 7.43941869,16.7792244 7.56448911,16.0519481 L4.58961474,16.0519481 C4.19653628,16.0519481 4,15.8614738 4,15.4805195 L4,15.1168831 C4,14.7359288 4.19653628,14.5454545 4.58961474,14.5454545 L7.77889447,14.5454545 L8.5561139,9.45454545 L5.28643216,9.45454545 C4.8933537,9.45454545 4.69681742,9.26407117 4.69681742,8.88311688 L4.69681742,8.51948052 C4.69681742,8.13852623 4.8933537,7.94805195 5.28643216,7.94805195 L8.79731993,7.94805195 L9.33333333,4.54545455 C9.36906774,4.40692571 9.43160201,4.28138584 9.52093802,4.16883117 C9.61027404,4.05627649 9.74427605,4 9.92294807,4 L10.4053601,4 C10.566165,4 10.700167,4.05194753 10.8073702,4.15584416 C10.9145734,4.25974078 10.9592407,4.38960961 10.9413735,4.54545455 L10.4053601,7.94805195 L14.881072,7.94805195 L15.4170854,4.54545455 C15.4528198,4.40692571 15.5153541,4.28138584 15.6046901,4.16883117 C15.6940261,4.05627649 15.8280281,4 16.0067002,4 L16.4891122,4 C16.6499171,4 16.7839191,4.05194753 16.8911223,4.15584416 C16.9983255,4.25974078 17.0429928,4.38960961 17.0251256,4.54545455 L16.4891122,7.94805195 L19.4103853,7.94805195 C19.8034637,7.94805195 20,8.13852623 20,8.51948052 L20,8.88311688 C20,9.26407117 19.8034637,9.45454545 19.4103853,9.45454545 L16.2747069,9.45454545 Z M13.8626466,14.5454545 L14.639866,9.45454545 L10.1909548,9.45454545 L9.41373534,14.5454545 L13.8626466,14.5454545 Z" id="#"></path>
        </g>
    </g>
</svg>