<svg width="24" height="24" viewBox="0 0 24 24" xmlns="http://www.w3.org/2000/svg"><title>Settings</title><g fill="#FFF" fill-rule="evenodd" opacity=".6"><path d="M11.467 21.986l-.96 1.922c-.4-.05-.79-.118-1.177-.206l-.244-2.133a9.926 9.926 0 0 1-1.004-.37l-1.56 1.478c-.354-.183-.7-.383-1.033-.6l.5-2.09a10.053 10.053 0 0 1-.82-.684l-1.97.855a12.09 12.09 0 0 1-.77-.916l1.186-1.79a9.99 9.99 0 0 1-.535-.925l-2.143.13a11.91 11.91 0 0 1-.41-1.12l1.727-1.28a9.965 9.965 0 0 1-.185-1.05L.01 12.596a12.2 12.2 0 0 1 0-1.196l2.057-.61a9.9 9.9 0 0 1 .184-1.052L.53 8.46c.118-.382.255-.756.41-1.12l2.143.13a9.99 9.99 0 0 1 .535-.926l-1.184-1.79c.24-.318.498-.624.77-.916l1.97.855c.258-.243.53-.472.816-.686l-.5-2.09c.333-.215.678-.415 1.033-.597l1.56 1.477c.325-.14.66-.26 1.003-.366L9.33.3c.386-.088.778-.157 1.177-.206l.96 1.922a10.162 10.162 0 0 1 1.066 0l.96-1.922c.4.05.79.118 1.177.206l.244 2.133c.343.106.678.228 1.004.367l1.56-1.477c.354.182.7.382 1.033.598l-.5 2.09c.287.215.56.444.82.687l1.97-.855c.27.293.527.6.77.917l-1.186 1.79c.194.297.373.605.535.924l2.143-.13c.155.364.292.738.41 1.12l-1.727 1.28c.08.344.142.695.185 1.05l2.058.612a12.2 12.2 0 0 1 0 1.196l-2.057.61a9.965 9.965 0 0 1-.184 1.053l1.727 1.28a11.91 11.91 0 0 1-.41 1.12l-2.143-.13a9.99 9.99 0 0 1-.536.926l1.184 1.79c-.24.318-.498.624-.77.916l-1.97-.855c-.258.244-.53.473-.816.687l.5 2.09c-.333.215-.678.415-1.033.597l-1.56-1.477c-.327.14-.66.26-1.005.366L14.67 23.7c-.386.088-.778.157-1.177.206l-.96-1.922a10.163 10.163 0 0 1-1.066 0zM12 20.5a8.5 8.5 0 1 0 0-17 8.5 8.5 0 0 0 0 17z"/><path d="M22 11.5v1h-7.71c-1.106 0-2.45.776-3.002 1.732L7.433 20.91l-.866-.5 3.855-6.678c.553-.956.553-2.508 0-3.464L6.567 3.59l.866-.5 3.855 6.678c.553.956 1.897 1.732 3 1.732H22z"/></g></svg>