<?xml version="1.0" encoding="UTF-8" standalone="no"?>
<svg width="20px" height="20px" viewBox="0 0 20 20" version="1.1" xmlns="http://www.w3.org/2000/svg" xmlns:xlink="http://www.w3.org/1999/xlink">
    <!-- Generator: Sketch 3.6.1 (26313) - http://www.bohemiancoding.com/sketch -->
    <title>iconNewMessage</title>
    <desc>Created with Sketch.</desc>
    <defs></defs>
    <g id="Assets" stroke="none" stroke-width="1" fill="none" fill-rule="evenodd">
        <g id="Group" fill="#FFFFFF">
            <g id="iconNewMessage">
                <path d="M10,19 L10,19 C14.9705627,19 19,14.9705627 19,10 C19,5.02943725 14.9705627,1 10,1 C5.02943725,1 1,5.02943725 1,10 C1,14.9705627 5.02943725,19 10,19 L10,19 Z M10,20 L10,20 C4.4771525,20 0,15.5228475 0,10 C0,4.4771525 4.4771525,0 10,0 C15.5228475,0 20,4.4771525 20,10 C20,15.5228475 15.5228475,20 10,20 L10,20 Z" id="Oval-235"></path>
                <path d="M5,14 C5,13.4477153 5.32258606,12.6774139 5.71184039,12.2881596 L11,7 L13,9 L7.71184039,14.2881596 C7.3187018,14.6812982 6.55613518,15 6,15 L5,15 L5,14 Z M12.814941,5.19730425 C13.2059265,4.81219375 13.8318074,4.81250001 14.2255073,5.21075656 L14.7973755,5.78924348 C15.1854243,6.18178349 15.1818886,6.81811145 14.793923,7.20607706 L14,8 L12,6 L12.814941,5.19730425 Z" id="Rectangle-491"></path>
            </g>
        </g>
    </g>
</svg>