<svg width="155" height="135" viewBox="0 0 56 56" xmlns="http://www.w3.org/2000/svg"><title>iconOrganization</title><g fill="none" fill-rule="evenodd"><circle fill="#FEC039" cx="28" cy="28" r="28"></circle><path d="M34.61 54.185c.245-.332.39-.742.39-1.185v-2s-2.333-3-7-3-7 3-7 3v2c0 .445.144.854.387 1.184 2.116.533 4.331.816 6.613.816 2.28 0 4.495-.283 6.61-.815zM10.064 48.18A10.24 10.24 0 0 1 12 48c4.667 0 7 3 7 3v2c0 .153-.017.303-.05.446a26.983 26.983 0 0 1-8.887-5.265zm35.874 0A10.24 10.24 0 0 0 44 48c-4.667 0-7 3-7 3v2c0 .154.017.303.05.446a26.983 26.983 0 0 0 8.887-5.265zM6.497 11.668C7.658 10.867 9.493 10 12 10c4.667 0 7 3 7 3v2c0 1.105-.897 2-2.006 2H7.006A1.998 1.998 0 0 1 5 15v-1.15a27.06 27.06 0 0 1 1.498-2.182zm9.346-7.783a4 4 0 0 1-6.219 4.333 27.063 27.063 0 0 1 6.219-4.333zm33.66 7.783C48.342 10.867 46.507 10 44 10c-4.667 0-7 3-7 3v2c0 1.112.898 2 2.006 2h9.988A2.002 2.002 0 0 0 51 15v-1.15a27.06 27.06 0 0 0-1.498-2.182zm-3.127-3.45a4 4 0 0 1-6.219-4.333 27.063 27.063 0 0 1 6.22 4.333zM21 32s2.333-3 7-3 7 3 7 3v2c0 1.105-.897 2-2.006 2h-9.988A1.998 1.998 0 0 1 21 34v-2zm7-4a4 4 0 1 0 0-8 4 4 0 0 0 0 8zM5 32s2.333-3 7-3 7 3 7 3v2c0 1.105-.897 2-2.006 2H7.006A1.998 1.998 0 0 1 5 34v-2zm7-4a4 4 0 1 0 0-8 4 4 0 0 0 0 8zm25 4s2.333-3 7-3 7 3 7 3v2c0 1.105-.897 2-2.006 2h-9.988A1.998 1.998 0 0 1 37 34v-2zm7-4a4 4 0 1 0 0-8 4 4 0 0 0 0 8zM28 47a4 4 0 1 0 0-8 4 4 0 0 0 0 8zm-16 0a4 4 0 1 0 0-8 4 4 0 0 0 0 8zm32 0a4 4 0 1 0 0-8 4 4 0 0 0 0 8zM21 13s2.333-3 7-3 7 3 7 3v2c0 1.105-.897 2-2.006 2h-9.988A1.998 1.998 0 0 1 21 15v-2zm7-4a4 4 0 1 0 0-8 4 4 0 0 0 0 8z" fill="#FFF"></path></g></svg>