<svg width="18" height="18" viewBox="0 0 18 18" xmlns="http://www.w3.org/2000/svg"><title>Settings</title><g fill="none" fill-rule="evenodd" stroke-linecap="round" stroke-linejoin="round"><path d="M12.644 13.767l.26 2.218a7.95 7.95 0 0 1-1.724.714l-1.386-1.753a6.056 6.056 0 0 1-1.588 0l-1.386 1.75a7.95 7.95 0 0 1-1.723-.713l.26-2.218c-.423-.323-.8-.7-1.124-1.123l-2.218.26A7.95 7.95 0 0 1 1.3 11.18l1.752-1.386a6.056 6.056 0 0 1 0-1.588L1.302 6.82a7.95 7.95 0 0 1 .713-1.723l2.218.26c.323-.423.7-.8 1.123-1.124l-.26-2.218A7.95 7.95 0 0 1 6.82 1.3l1.386 1.752a6.056 6.056 0 0 1 1.588 0l1.386-1.75a7.95 7.95 0 0 1 1.723.713l-.26 2.218c.423.323.8.7 1.124 1.123l2.218-.26A7.95 7.95 0 0 1 16.7 6.82l-1.752 1.386a6.056 6.056 0 0 1 0 1.588l1.75 1.386a7.95 7.95 0 0 1-.713 1.723l-2.218-.26c-.323.423-.7.8-1.123 1.124z" stroke="#9A9DA1"/><path d="M6.5 8h5L9 11 6.5 8z" stroke="#979797" fill="#9A9DA1"/></g></svg>