<?xml version="1.0" encoding="UTF-8" standalone="no"?>
<svg width="28px" height="28px" viewBox="0 0 28 28" version="1.1" xmlns="http://www.w3.org/2000/svg" xmlns:xlink="http://www.w3.org/1999/xlink">
    <!-- Generator: sketchtool 39.1 (31720) - http://www.bohemiancoding.com/sketch -->
    <title>759565BE-2A1A-48C5-8196-EC25E3873D36</title>
    <desc>Created with sketchtool.</desc>
    <defs>
        <rect id="path-1" x="0" y="0" width="28" height="28" rx="14"></rect>
        <mask id="mask-2" maskContentUnits="userSpaceOnUse" maskUnits="objectBoundingBox" x="0" y="0" width="28" height="28" fill="white">
            <use xlink:href="#path-1"></use>
        </mask>
    </defs>
    <g id="Page-1" stroke="none" stroke-width="1" fill="none" fill-rule="evenodd">
        <g id="On-a-website" transform="translate(-1079.000000, -258.000000)">
            <g id="Group-4" transform="translate(799.000000, 0.000000)">
                <g id="Group-7" transform="translate(144.000000, 240.000000)">
                    <g id="avatar" transform="translate(136.000000, 18.000000)">
                        <use id="Rectangle-31-Copy-2" stroke-opacity="0.0955882353" stroke="#000000" mask="url(#mask-2)" xlink:href="#path-1"></use>
                        <path d="M7,18 C7,18 9.33333333,15 14,15 C18.6666667,15 21,18 21,18 L21,20 C21,21.1045695 20.1029399,22 18.9941413,22 L9.00585866,22 C7.89805351,22 7,21.1122704 7,20 L7,18 Z M14,14 C16.209139,14 18,12.209139 18,10 C18,7.790861 16.209139,6 14,6 C11.790861,6 10,7.790861 10,10 C10,12.209139 11.790861,14 14,14 Z" id="Oval-108" fill="#A3A5A9"></path>
                    </g>
                </g>
            </g>
        </g>
    </g>
</svg>