<?xml version="1.0" encoding="UTF-8" standalone="no"?>
<svg width="24px" height="24px" viewBox="0 0 24 24" version="1.1" xmlns="http://www.w3.org/2000/svg" xmlns:xlink="http://www.w3.org/1999/xlink">
    <!-- Generator: Sketch 3.6.1 (26313) - http://www.bohemiancoding.com/sketch -->
    <title>iconMail</title>
    <desc>Created with Sketch.</desc>
    <defs></defs>
    <g id="Assets" stroke="none" stroke-width="1" fill="none" fill-rule="evenodd">
        <g id="Registration" transform="translate(-48.000000, 0.000000)" fill="#c91913">
            <g id="iconMail" transform="translate(48.000000, 0.000000)">
                <g id="Group-9" transform="translate(2.000000, 5.000000)">
                    <path d="M0,2.00585866 C0,0.898053512 0.898212381,0 1.99079514,0 L18.0092049,0 C19.1086907,0 20,0.897060126 20,2.00585866 L20,11.9941413 C20,13.1019465 19.1017876,14 18.0092049,14 L1.99079514,14 C0.891309342,14 0,13.1029399 0,11.9941413 L0,2.00585866 L0,2.00585866 Z M7.02036843,8.76527631 L2.40943524,12.5048393 C2.13062017,12.7309642 1.7212855,12.6882503 1.49516066,12.4094352 C1.26903583,12.1306202 1.3117497,11.7212855 1.59056476,11.4951607 L5.94812158,7.96109117 L7.02036843,8.76527631 L7.02036843,8.76527631 Z M12.9796315,8.76527637 L17.5905648,12.5048393 C17.8693798,12.7309642 18.2787145,12.6882503 18.5048393,12.4094352 C18.7309642,12.1306202 18.6882503,11.7212855 18.4094352,11.4951607 L14.0518784,7.96109122 L12.9796315,8.76527637 L12.9796315,8.76527637 L12.9796315,8.76527637 Z M9.61000001,8.51999997 C9.84111112,8.6933333 10.1588889,8.6933333 10.39,8.51999997 L18.39,2.51999997 C18.677188,2.30460893 18.735391,1.89718806 18.52,1.61 C18.3046089,1.32281194 17.8971881,1.26460896 17.61,1.48000001 L10,7.20001221 L2.38999999,1.48000001 C2.10281193,1.26460896 1.69539106,1.32281194 1.48000002,1.61 C1.26460897,1.89718806 1.32281195,2.30460893 1.61000001,2.51999997 L9.61000001,8.51999997 L9.61000001,8.51999997 Z" id="Rectangle-158"></path>
                </g>
            </g>
        </g>
    </g>
</svg>